<?xml version="1.0" standalone="no"?><!DOCTYPE svg PUBLIC "-//W3C//DTD SVG 1.1//EN" "http://www.w3.org/Graphics/SVG/1.1/DTD/svg11.dtd"><svg t="1597197720119" class="icon" viewBox="0 0 1024 1024" version="1.1" xmlns="http://www.w3.org/2000/svg" p-id="4037" width="16" height="16" xmlns:xlink="http://www.w3.org/1999/xlink"><defs><style type="text/css"></style></defs><path d="M733.866667 563.2c-13.653333 0-27.306667-5.12-37.546667-15.36l-443.733333-438.613333c-20.48-20.48-20.48-54.613333 0-76.8C273.066667 11.946667 307.2 11.946667 329.386667 32.426667l443.733333 438.613333c20.48 20.48 22.186667 54.613333 0 76.8-11.946667 11.946667-25.6 15.36-39.253333 15.36z m0 0" p-id="4038"></path><path d="M295.253333 1006.933333c-13.653333 0-27.306667-5.12-37.546666-15.36-20.48-20.48-20.48-54.613333 0-76.8l438.613333-443.733333c20.48-20.48 54.613333-22.186667 76.8 0 20.48 20.48 22.186667 54.613333 0 76.8L332.8 989.866667c-10.24 11.946667-23.893333 17.066667-37.546667 17.066666z m0 0" p-id="4039"></path></svg>