<?xml version="1.0" standalone="no"?><!DOCTYPE svg PUBLIC "-//W3C//DTD SVG 1.1//EN" "http://www.w3.org/Graphics/SVG/1.1/DTD/svg11.dtd"><svg t="1597197696278" class="icon" viewBox="0 0 9216 1024" version="1.1" xmlns="http://www.w3.org/2000/svg" p-id="3243" width="144" height="16" xmlns:xlink="http://www.w3.org/1999/xlink"><defs><style type="text/css"></style></defs><path d="M7271.033778 253.145416c-5.208477-192.713646-178.129911-253.131978-236.464852-253.131978-6.250172 0-10.416954 1.041695-13.54204 2.083391H791.688492c-3.125086-1.041695-8.333563-2.083391-13.54204-2.083391C718.769815-1.028258 546.890076 58.348379 541.681599 251.062025c-3.125086 213.547554-229.172984 260.423846-229.172984 260.423846s226.047898 46.876292 229.172984 259.382151c5.208477 191.671951 178.129911 253.131978 236.464853 253.131978 6.250172 0 10.416954-1.041695 13.54204-2.083391h6229.338394c3.125086 1.041695 8.333563 2.083391 13.54204 2.083391 58.334941 0 231.256375-60.418332 236.464852-252.090283 3.125086-212.505858 229.172984-259.382151 229.172984-259.38215s-226.047898-46.876292-229.172984-259.382151zM7250.19987 771.909717c-4.166782 173.963129-161.462784 231.256375-215.630944 231.256375-5.208477 0-7.291868-1.041695-7.291868-1.041695l-3.125086-1.041695H788.563405l-3.125086 1.041695s-2.083391 1.041695-6.250172 1.041695c-54.16816 0-211.464163-57.293246-215.630944-232.29807-3.125086-154.170917-114.586492-228.131289-187.50517-259.382151C447.929015 480.23501 560.432116 406.274637 562.515507 251.062025 566.682289 77.098896 723.978292 19.80565 778.146452 19.80565c5.208477 0 7.291868 1.041695 7.291867 1.041696l2.083391 1.041695H7024.151972l3.125086-1.041695s2.083391-1.041695 6.250172-1.041696c54.16816 0 211.464163 57.293246 215.630945 233.339766 2.083391 154.170917 113.544797 228.131289 186.463474 259.382151-71.876981 31.250862-183.338388 105.211234-185.421779 259.38215z" p-id="3244"></path><path d="M7156.447286 186.476912c0-63.543418-163.546175-216.67264-291.674708-41.667816 0 0-112.503101 189.58856-177.088215 31.250862C6648.099938 54.181598 6552.263963 63.556856 6552.263963 63.556856H1281.285322s-106.252929-6.250172-145.837354 114.586492c-64.585114 158.337698-177.088215-31.250862-177.088215-31.250861-128.128532-175.004824-291.674707-20.833908-291.674707 41.667815-4.166782 287.507926-197.922123 322.925569-197.922123 322.925569s193.755341 35.417643 197.922123 325.00896c0 63.543418 163.546175 217.714335 291.674707 41.667815 0 0 112.503101-190.630255 177.088215-31.250861 39.584425 121.87836 135.4204 112.503101 135.4204 112.503101h5281.395595s95.835975 9.375258 135.4204-113.544797c63.543418-159.379394 177.088215 31.250862 177.088215 31.250862 128.128532 176.04652 291.674707 21.875603 291.674708-41.667815 4.166782-289.591317 197.922123-326.050655 197.922123-326.050656s-193.755341-35.417643-197.922123-322.925568zM7083.528609 709.407994c-6.250172 101.044452-147.920744 144.795658-187.505169 105.211234-23.958994-22.917298-160.421089-121.87836-208.339077-31.250862-42.709511 91.669194-135.4204 82.293935-135.4204 82.293936H1270.868368s-92.710889 9.375258-135.4204-81.25224c-47.917988-90.627498-184.380083 9.375258-208.339077 31.250861-39.584425 39.584425-181.254997-4.166782-187.505169-105.211233C732.311855 603.155065 593.766369 511.485871 593.766369 511.485871s138.545486-90.627498 145.837353-197.922123c6.250172-100.002757 147.920744-143.753963 187.505169-104.169538 23.958994 21.875603 160.421089 120.836665 208.339077 31.250861 42.709511-90.627498 145.837354-83.335631 145.837354-83.33563h5270.978641s92.710889-9.375258 135.4204 81.25224c47.917988 89.585803 184.380083-9.375258 208.339077-31.250862 39.584425-39.584425 181.254997 4.166782 187.505169 104.169539 7.291868 107.294625 145.837354 197.922123 145.837354 197.922122s-138.545486 92.710889-145.837354 200.005514z" p-id="3245"></path><path d="M947.942799 271.895933c-47.917988-65.626809-156.254308 11.458649-156.254307 62.501723s38.542729 138.545486 156.254307 104.169538c0 0-34.375948-6.250172-62.501723-31.250861-63.543418-57.293246-25.000689-160.421089 104.169538-52.084769 88.544108 51.043074 177.088215-62.501723 177.088216-62.501723s-132.295314 113.544797-218.756031-20.833908zM989.610614 675.032046c-129.170228 107.294625-167.712957 5.208477-104.169538-52.084769 28.125775-25.000689 62.501723-31.250862 62.501723-31.250861-117.711578-34.375948-156.254308 53.126465-156.254307 103.127843 0 51.043074 108.33632 127.086837 156.254307 61.460027 86.460717-133.337009 218.756031-20.833908 218.756031-20.833907s-88.544108-111.461406-177.088216-60.418333zM6885.606486 276.062715c-86.460717 133.337009-218.756031 20.833908-218.756031 20.833907s88.544108 113.544797 177.088216 62.501723c128.128532-107.294625 167.712957-5.208477 104.169538 52.084769-28.125775 25.000689-62.501723 31.250862-62.501723 31.250862 117.711578 34.375948 156.254308-53.126465 156.254307-103.127843 0-52.084769-108.33632-128.128532-156.254307-63.543418zM6885.606486 593.779807s34.375948 6.250172 62.501723 31.250861c63.543418 56.251551 23.958994 158.337698-104.169538 51.043074-88.544108-51.043074-177.088215 61.460028-177.088216 61.460027s132.295314-112.503101 218.756031 20.833908c47.917988 64.585114 156.254308-11.458649 156.254307-61.460027 0-51.043074-38.542729-137.503791-156.254307-103.127843z" p-id="3246"></path></svg>